<svg width="40" height="40" viewBox="0 0 40 40" fill="none" xmlns="http://www.w3.org/2000/svg">
<g clip-path="url(#clip0_1001_5329)">
<path d="M13.3332 24.9998C13.3332 23.1589 11.8408 21.6665 9.99984 21.6665C8.15889 21.6665 6.6665 23.1589 6.6665 24.9998V28.3332C6.6665 30.1741 8.15889 31.6665 9.99984 31.6665C11.8408 31.6665 13.3332 30.1741 13.3332 28.3332V24.9998Z" stroke="white" stroke-width="2" stroke-linecap="round" stroke-linejoin="round"/>
<path d="M33.3332 24.9998C33.3332 23.1589 31.8408 21.6665 29.9998 21.6665C28.1589 21.6665 26.6665 23.1589 26.6665 24.9998V28.3332C26.6665 30.1741 28.1589 31.6665 29.9998 31.6665C31.8408 31.6665 33.3332 30.1741 33.3332 28.3332V24.9998Z" stroke="white" stroke-width="2" stroke-linecap="round" stroke-linejoin="round"/>
<path d="M6.6665 24.9998V19.9998C6.6665 16.4636 8.07126 13.0722 10.5717 10.5717C13.0722 8.07126 16.4636 6.6665 19.9998 6.6665C23.5361 6.6665 26.9274 8.07126 29.4279 10.5717C31.9284 13.0722 33.3332 16.4636 33.3332 19.9998V24.9998" stroke="white" stroke-width="2" stroke-linecap="round" stroke-linejoin="round"/>
<path d="M30 31.6665C30 32.9926 28.9464 34.2644 27.0711 35.202C25.1957 36.1397 22.6522 36.6665 20 36.6665" stroke="white" stroke-width="2" stroke-linecap="round" stroke-linejoin="round"/>
</g>
<defs>
<clipPath id="clip0_1001_5329">
<rect width="40" height="40" fill="white"/>
</clipPath>
</defs>
</svg>
