<svg width="40" height="40" viewBox="0 0 40 40" fill="none" xmlns="http://www.w3.org/2000/svg">
<path d="M8.09894 30.5992L8.09871 30.5991C7.22598 29.9483 6.42537 28.9206 5.84258 27.759C5.25973 26.5973 4.9165 25.3451 4.9165 24.2666V11.8666C4.9165 9.50736 6.67133 6.96177 8.891 6.13513L8.89196 6.13477L17.2082 3.01826C17.2083 3.01823 17.2084 3.0182 17.2085 3.01817C17.9619 2.73661 18.9614 2.5874 19.9832 2.5874C21.0049 2.5874 22.0044 2.73661 22.7579 3.01817C22.758 3.0182 22.758 3.01823 22.7581 3.01826L31.0744 6.13477L31.0753 6.13513C33.295 6.96177 35.0498 9.50736 35.0498 11.8666V24.2499C35.0498 25.3371 34.7064 26.5892 34.1239 27.7483C33.5414 28.9073 32.7409 29.9313 31.8676 30.5824L31.8674 30.5826L24.7007 35.9326L24.7007 35.9325L24.6945 35.9373C23.4118 36.9264 21.7239 37.4332 19.9998 37.4332C18.2772 37.4332 16.585 36.927 15.2647 35.9486C15.2645 35.9484 15.2644 35.9483 15.2642 35.9482L8.09894 30.5992ZM17.7417 4.43145L17.741 4.4317L9.42438 7.54837L9.42367 7.54863C8.59609 7.86019 7.85486 8.52248 7.32394 9.29061C6.79285 10.059 6.43317 10.9898 6.43317 11.8832V24.2666C6.43317 25.161 6.74375 26.1892 7.20075 27.101C7.65764 28.0126 8.29312 28.8722 9.00069 29.4005L9.00073 29.4006L16.1671 34.7503C17.2291 35.5445 18.6281 35.9249 20.0019 35.9249C21.3759 35.9249 22.7781 35.5445 23.8476 34.7516L23.8489 34.7506L31.0156 29.4006L31.0165 29.3999C31.7313 28.8638 32.3667 28.005 32.8221 27.0943C33.2774 26.1837 33.5832 25.16 33.5832 24.2666V11.8666C33.5832 10.9804 33.2227 10.0538 32.6924 9.28645C32.1619 8.51889 31.4221 7.85396 30.5975 7.5338L30.5975 7.53376L30.592 7.5317L22.2753 4.41503L22.2753 4.41495L22.2662 4.41174C21.6281 4.18651 20.8 4.08314 20.0006 4.08532C19.2019 4.0875 18.375 4.19514 17.7417 4.43145Z" fill="#FAFAFA" stroke="#FAFAFA"/>
<path d="M17.413 21.0536L17.7666 21.4071L18.1201 21.0536L24.4035 14.7703C24.6915 14.4822 25.1749 14.4822 25.463 14.7703C25.7511 15.0583 25.7511 15.5417 25.463 15.8298L18.2963 22.9965C18.1451 23.1478 17.9578 23.2167 17.7666 23.2167C17.5754 23.2167 17.3881 23.1478 17.2368 22.9965L14.5535 20.3131C14.2654 20.0251 14.2654 19.5417 14.5535 19.2536C14.8415 18.9655 15.3249 18.9655 15.613 19.2536L17.413 21.0536Z" fill="#FAFAFA" stroke="#FAFAFA"/>
</svg>
